<svg xmlns="http://www.w3.org/2000/svg" xmlns:xlink="http://www.w3.org/1999/xlink" version="1.1" width="24pt" height="24pt" viewBox="0 0 24 24">
<path transform="matrix(1,0,0,-1,4.080078,21.464173)" d="M15.262502 7.064142 15.509989 6.816655 15.262502 7.064142ZM9.690001 1.491643 9.442513 1.73913 9.690001 1.491643ZM6.952501 1.491643 7.199988 1.73913 6.952501 1.491643ZM.57 7.874143 .322513 7.626655 .57 7.874143ZM7.507501 16.746644V16.396643 16.746644ZM8.632513 15.936656 15.015014 9.554155 15.509989 10.04913 9.127488 16.431632 8.632513 15.936656ZM15.015014 9.554155C15.635831 8.933339 15.635831 7.932446 15.015014 7.31163L15.509989 6.816655C16.404173 7.710838 16.404173 9.154947 15.509989 10.04913L15.015014 9.554155ZM15.015014 7.31163 9.442513 1.73913 9.937489 1.244156 15.509989 6.816655 15.015014 7.31163ZM9.442513 1.73913C8.821697 1.118314 7.820805 1.118314 7.199988 1.73913L6.705014 1.244156C7.599197 .349972 9.043304 .349972 9.937489 1.244156L9.442513 1.73913ZM7.199988 1.73913 .817487 8.12163 .322513 7.626655 6.705014 1.244156 7.199988 1.73913ZM.817487 8.12163C.521552 8.417564 .35 8.82417 .35 9.239143H-.35C-.35 8.634117-.101553 8.05072 .322513 7.626655L.817487 8.12163ZM.35 9.239143V14.811644H-.35V9.239143H.35ZM.35 14.811644C.35 15.683343 1.0633 16.396643 1.935 16.396643V17.096644C.676701 17.096644-.35 16.069943-.35 14.811644H.35ZM1.935 16.396643H7.507501V17.096644H1.935V16.396643ZM7.507501 16.396643C7.93416 16.396643 8.339541 16.229628 8.632513 15.936656L9.127488 16.431632C8.70046 16.858658 8.115842 17.096644 7.507501 17.096644V16.396643Z" fill="#444444"/>
<path transform="matrix(1,0,0,-1,7.537598,10.952515)" d="M1.735 1.742474C1.735 1.360016 1.424957 1.049973 1.0425 1.049973V.349973C1.811556 .349973 2.435 .973417 2.435 1.742474H1.735ZM1.0425 1.049973C.660043 1.049973 .35 1.360016 .35 1.742474H-.35C-.35 .973417 .273443 .349973 1.0425 .349973V1.049973ZM.35 1.742474C.35 2.124931 .660042 2.434973 1.0425 2.434973V3.134973C.273443 3.134973-.35 2.51153-.35 1.742474H.35ZM1.0425 2.434973C1.424957 2.434973 1.735 2.12493 1.735 1.742474H2.435C2.435 2.51153 1.811556 3.134973 1.0425 3.134973V2.434973Z" fill="#444444"/>
</svg>
