<svg xmlns="http://www.w3.org/2000/svg" xmlns:xlink="http://www.w3.org/1999/xlink" version="1.1" width="24pt" height="24pt" viewBox="0 0 24 24">
<path transform="matrix(1,0,0,-1,3,19.700562)" d="M.217987 13.608521 .529839 13.449624 .217987 13.608521ZM1.091797 14.482574 1.250694 14.170722 1.091797 14.482574ZM1.091797 .91858 1.250694 1.230433 1.091797 .91858ZM.217987 1.792533-.093865 1.633636 .217987 1.792533ZM17.782227 1.792533 17.470376 1.951429 17.782227 1.792533ZM16.907788 .91858 16.74889 1.230433 16.907788 .91858ZM17.782227 13.608521 17.470376 13.449624 17.782227 13.608521ZM16.907788 14.482574 17.066685 14.794427 16.907788 14.482574ZM1.20621 13.983364C1.050023 14.097251 .831084 14.06296 .717197 13.906772 .603311 13.750585 .637602 13.531646 .79379 13.417759L1.20621 13.983364ZM9.228571 7.700562 9.022361 7.417759C9.148104 7.326072 9.319283 7.328421 9.442463 7.423523L9.228571 7.700562ZM17.213837 13.423523C17.36684 13.541652 17.395113 13.761449 17.276984 13.914454 17.158854 14.067457 16.939057 14.095729 16.786053 13.9776L17.213837 13.423523ZM17.65 11.50061V3.900611H18.35V11.50061H17.65ZM14.800196 1.050562H3.200195V.350562H14.800196V1.050562ZM.35 3.900611V11.50061H-.35V3.900611H.35ZM3.200195 14.350561H14.800196V15.050562H3.200195V14.350561ZM.35 11.50061C.35 12.066439 .350272 12.469742 .376086 12.785668 .401565 13.097506 .450174 13.293272 .529839 13.449624L-.093865 13.767417C-.232187 13.495945-.292572 13.197809-.321589 12.842674-.350272 12.491628-.35 12.054887-.35 11.50061H.35ZM3.200195 15.050562C2.645915 15.050562 2.209059 15.050834 1.857898 15.022152 1.502674 14.993137 1.204396 14.932761 .9329 14.794427L1.250694 14.170722C1.407021 14.250375 1.60289 14.298992 1.914883 14.324474 2.230939 14.350289 2.634371 14.350561 3.200195 14.350561V15.050562ZM.529839 13.449624C.688076 13.760181 .940317 14.012577 1.250694 14.170722L.9329 14.794427C.490629 14.569078 .131391 14.209508-.093865 13.767417L.529839 13.449624ZM3.200195 1.050562C2.634376 1.050562 2.230943 1.050842 1.914891 1.076664 1.602901 1.102154 1.407027 1.150777 1.250694 1.230433L.9329 .606728C1.204391 .468396 1.502663 .40801 1.85789 .378988 2.209055 .350298 2.64591 .350562 3.200195 .350562V1.050562ZM-.35 3.900611C-.35 3.346333-.350272 2.909553-.321589 2.558467-.292573 2.2033-.232191 1.905116-.093865 1.633636L.529839 1.951429C.450178 2.107773 .401567 2.303575 .376086 2.615465 .350272 2.931437 .35 3.334784 .35 3.900611H-.35ZM1.250694 1.230433C.940279 1.388597 .688057 1.640909 .529839 1.951429L-.093865 1.633636C.13141 1.191508 .490666 .832057 .9329 .606728L1.250694 1.230433ZM17.65 3.900611C17.65 3.334748 17.649783 2.931404 17.624016 2.61541 17.598584 2.3035 17.550015 2.107733 17.470376 1.951429L18.094079 1.633636C18.232426 1.905156 18.292744 2.203375 18.321702 2.558522 18.350325 2.909585 18.35 3.346368 18.35 3.900611H17.65ZM14.800196 .350562C15.354475 .350562 15.791141 .350298 16.142115 .37899 16.497195 .408017 16.795233 .468416 17.066685 .606728L16.74889 1.230433C16.592518 1.150756 16.396813 1.102146 16.08508 1.076662 15.76924 1.050842 15.366021 1.050562 14.800196 1.050562V.350562ZM17.470376 1.951429C17.312275 1.641142 17.059538 1.388715 16.74889 1.230433L17.066685 .606728C17.508685 .831938 17.868685 1.191276 18.094079 1.633636L17.470376 1.951429ZM18.35 11.50061C18.35 12.054852 18.350325 12.491595 18.321702 12.842618 18.292742 13.197735 18.23242 13.495906 18.094079 13.767417L17.470376 13.449624C17.550019 13.293312 17.598586 13.09758 17.624016 12.785724 17.649783 12.469774 17.65 12.066474 17.65 11.50061H18.35ZM14.800196 14.350561C15.366027 14.350561 15.769244 14.350289 16.085087 14.324476 16.396824 14.298999 16.592524 14.250396 16.74889 14.170722L17.066685 14.794427C16.795228 14.932741 16.497185 14.993131 16.142107 15.02215 15.791136 15.050834 15.354469 15.050562 14.800196 15.050562V14.350561ZM18.094079 13.767417C17.868704 14.209741 17.508723 14.569197 17.066685 14.794427L16.74889 14.170722C17.059502 14.012459 17.312256 13.759949 17.470376 13.449624L18.094079 13.767417ZM.79379 13.417759 9.022361 7.417759 9.434781 7.983365 1.20621 13.983364 .79379 13.417759ZM9.442463 7.423523 17.213837 13.423523 16.786053 13.9776 9.014679 7.977601 9.442463 7.423523Z" fill="#0b0b0b"/>
</svg>
