<svg xmlns="http://www.w3.org/2000/svg" xmlns:xlink="http://www.w3.org/1999/xlink" version="1.1" width="24pt" height="24pt" viewBox="0 0 24 24">
<path transform="matrix(1,0,0,-1,3,19.699952)" d="M11.65 .699951C11.65 .506652 11.8067 .349951 11.999999 .349951 12.193299 .349951 12.349999 .506652 12.349999 .699951H11.65ZM-.35 .699951C-.35 .506652-.1933 .349951 0 .349951 .1933 .349951 .35 .506652 .35 .699951H-.35ZM13.752512 5.947472C13.615829 5.810788 13.615829 5.589181 13.752512 5.452497 13.889195 5.315813 14.110804 5.315813 14.247487 5.452497L13.752512 5.947472ZM18.247454 9.452463C18.384139 9.589148 18.384139 9.810755 18.247454 9.947439 18.110772 10.084122 17.889164 10.084122 17.75248 9.947439L18.247454 9.452463ZM14.247487 9.947438C14.110804 10.084122 13.889195 10.084122 13.752512 9.947439 13.615829 9.810755 13.615829 9.589148 13.752512 9.452464L14.247487 9.947438ZM17.752478 5.452497C17.88916 5.315813 18.110768 5.315813 18.247452 5.452497 18.384135 5.58918 18.384135 5.810787 18.247452 5.947471L17.752478 5.452497ZM12.349999 .699951C12.349999 1.957954 11.585146 3.054022 10.436786 3.819596 9.285978 4.586801 7.716315 5.049951 6 5.049951V4.349951C7.597393 4.349951 9.02773 3.917671 10.048495 3.237161 11.071707 2.555019 11.65 1.651087 11.65 .699951H12.349999ZM6 5.049951C4.283684 5.049951 2.714021 4.586801 1.563214 3.819596 .414853 3.054022-.35 1.957954-.35 .699951H.35C.35 1.651087 .928292 2.555019 1.951504 3.237161 2.97227 3.917671 4.402606 4.349951 6 4.349951V5.049951ZM14.247487 5.452497 18.247454 9.452463 17.75248 9.947439 13.752512 5.947472 14.247487 5.452497ZM13.752512 9.452464 17.752478 5.452497 18.247452 5.947471 14.247487 9.947438 13.752512 9.452464ZM6 8.049952C3.98416 8.049952 2.35 9.684112 2.35 11.699951H1.65C1.65 9.297512 3.597561 7.349951 6 7.349951V8.049952ZM2.35 11.699951C2.35 13.715791 3.98416 15.349951 6 15.349951V16.049952C3.597561 16.049952 1.65 14.10239 1.65 11.699951H2.35ZM6 15.349951C8.015839 15.349951 9.649999 13.715791 9.649999 11.699951H10.349999C10.349999 14.10239 8.402438 16.049952 6 16.049952V15.349951ZM9.649999 11.699951C9.649999 9.684112 8.015839 8.049952 6 8.049952V7.349951C8.402438 7.349951 10.349999 9.297512 10.349999 11.699951H9.649999Z" fill="#a80000"/>
</svg>
