<svg xmlns="http://www.w3.org/2000/svg" xmlns:xlink="http://www.w3.org/1999/xlink" version="1.1" width="24pt" height="24pt" viewBox="0 0 24 24">
<path transform="matrix(1,0,0,-1,3,19.699952)" d="M11.65 .699951C11.65 .506652 11.806701 .349951 12 .349951 12.193299 .349951 12.35 .506652 12.35 .699951H11.65ZM-.35 .699951C-.35 .506652-.1933 .349951 0 .349951 .1933 .349951 .35 .506652 .35 .699951H-.35ZM18.247488 9.452463C18.38417 9.589148 18.38417 9.810755 18.247488 9.947439 18.110804 10.084122 17.889197 10.084122 17.752512 9.947439L18.247488 9.452463ZM14 5.699951 13.752513 5.452464C13.889196 5.315781 14.110804 5.315781 14.247487 5.452464L14 5.699951ZM12.247487 7.947439C12.110804 8.084122 11.889196 8.084122 11.752513 7.947439 11.615829 7.810755 11.615829 7.589148 11.752513 7.452464L12.247487 7.947439ZM12.35 .699951C12.35 1.957954 11.585147 3.054022 10.436786 3.819596 9.285978 4.586801 7.716315 5.049952 6 5.049952V4.349951C7.597394 4.349951 9.02773 3.917671 10.048495 3.237161 11.071708 2.555019 11.65 1.651087 11.65 .699951H12.35ZM6 5.049952C4.283685 5.049952 2.714021 4.586801 1.563214 3.819596 .414853 3.054022-.35 1.957954-.35 .699951H.35C.35 1.651087 .928292 2.555019 1.951504 3.237161 2.97227 3.917671 4.402606 4.349951 6 4.349951V5.049952ZM17.752512 9.947439 13.752513 5.947438 14.247487 5.452464 18.247488 9.452463 17.752512 9.947439ZM14.247487 5.947438 12.247487 7.947439 11.752513 7.452464 13.752513 5.452464 14.247487 5.947438ZM6 8.049952C3.984161 8.049952 2.35 9.684112 2.35 11.699951H1.65C1.65 9.297512 3.597561 7.349951 6 7.349951V8.049952ZM2.35 11.699951C2.35 13.715791 3.984161 15.349951 6 15.349951V16.049952C3.597561 16.049952 1.65 14.10239 1.65 11.699951H2.35ZM6 15.349951C8.01584 15.349951 9.65 13.715791 9.65 11.699951H10.35C10.35 14.10239 8.402439 16.049952 6 16.049952V15.349951ZM9.65 11.699951C9.65 9.684112 8.01584 8.049952 6 8.049952V7.349951C8.402439 7.349951 10.35 9.297512 10.35 11.699951H9.65Z" fill="#0b0b0b"/>
</svg>
