<svg xmlns="http://www.w3.org/2000/svg" xmlns:xlink="http://www.w3.org/1999/xlink" version="1.1" width="24pt" height="24pt" viewBox="0 0 24 24">
<path transform="matrix(1,0,0,-1,3,19.73413)" d="M11.65 .734129C11.65 .540829 11.806701 .384129 12 .384129 12.193299 .384129 12.35 .540829 12.35 .734129H11.65ZM-.35 .734129C-.35 .540829-.1933 .384129 0 .384129 .1933 .384129 .35 .540829 .35 .734129H-.35ZM14.075612 14.809987C13.938929 14.946671 13.71732 14.946671 13.580638 14.809987 13.443954 14.673304 13.443954 14.451695 13.580638 14.315012L14.075612 14.809987ZM13.580638 9.153162C13.443954 9.016479 13.443954 8.794871 13.580638 8.658188 13.717321 8.521504 13.938929 8.521504 14.075612 8.658188L13.580638 9.153162ZM16.247488 16.981619C16.110804 17.118302 15.889195 17.118302 15.752513 16.981619 15.615829 16.844935 15.615829 16.623328 15.752513 16.486643L16.247488 16.981619ZM17.532715 9.028151 17.856074 8.894212 17.532715 9.028151ZM15.752513 6.981544C15.615829 6.844861 15.615829 6.623254 15.752513 6.48657 15.889196 6.349886 16.110804 6.349886 16.247488 6.486569L15.752513 6.981544ZM12.35 .734129C12.35 1.992132 11.585147 3.088201 10.436786 3.853774 9.285978 4.620979 7.716315 5.084129 6 5.084129V4.38413C7.597394 4.38413 9.02773 3.951849 10.048495 3.271338 11.071708 2.589197 11.65 1.685265 11.65 .734129H12.35ZM6 5.084129C4.283685 5.084129 2.714021 4.620979 1.563214 3.853774 .414853 3.088201-.35 1.992132-.35 .734129H.35C.35 1.685265 .928292 2.589197 1.951504 3.271338 2.97227 3.951849 4.402606 4.38413 6 4.38413V5.084129ZM6 8.084129C3.984161 8.084129 2.35 9.71829 2.35 11.734131H1.65C1.65 9.331692 3.597561 7.38413 6 7.38413V8.084129ZM2.35 11.734131C2.35 13.749969 3.984161 15.38413 6 15.38413V16.084132C3.597561 16.084132 1.65 14.136569 1.65 11.734131H2.35ZM6 15.38413C8.01584 15.38413 9.65 13.749969 9.65 11.734131H10.35C10.35 14.136569 8.402439 16.084132 6 16.084132V15.38413ZM9.65 11.734131C9.65 9.71829 8.01584 8.084129 6 8.084129V7.38413C8.402439 7.38413 10.35 9.331692 10.35 11.734131H9.65ZM13.580638 14.315012C13.919572 13.976078 14.188429 13.573706 14.371859 13.130867L15.018574 13.398746C14.799966 13.926512 14.479548 14.406052 14.075612 14.809987L13.580638 14.315012ZM14.371859 13.130867C14.555307 12.687982 14.649794 12.213432 14.649794 11.734158H15.349794C15.349794 12.305458 15.237163 12.871025 15.018574 13.398746L14.371859 13.130867ZM14.649794 11.734158C14.649794 11.25483 14.555384 10.780171 14.371955 10.337336L15.01867 10.069456C15.23728 10.597225 15.349794 11.16291 15.349794 11.734158H14.649794ZM14.371955 10.337336C14.188536 9.894524 13.919593 9.492117 13.580638 9.153162L14.075612 8.658188C14.479527 9.062101 14.800051 9.541663 15.01867 10.069456L14.371955 10.337336ZM15.752513 16.486643C16.376622 15.862535 16.87169 15.121611 17.209456 14.306173L17.856173 14.574051C17.483229 15.474417 16.936598 16.29251 16.247488 16.981619L15.752513 16.486643ZM17.209456 14.306173C17.547213 13.490756 17.720967 12.61685 17.720967 11.734205H18.420968C18.420968 12.708733 18.229125 13.673666 17.856173 14.574051L17.209456 14.306173ZM17.720967 11.734205C17.720967 10.851579 17.547122 9.977524 17.209357 9.16209L17.856074 8.894212C18.229018 9.79458 18.420968 10.759661 18.420968 11.734205H17.720967ZM17.209357 9.16209C16.87158 8.346623 16.376599 7.60563 15.752513 6.981544L16.247488 6.486569C16.936619 7.175702 17.48314 7.993876 17.856074 8.894212L17.209357 9.16209Z" fill="#0b0b0b"/>
</svg>
