<svg xmlns="http://www.w3.org/2000/svg" xmlns:xlink="http://www.w3.org/1999/xlink" version="1.1" width="24pt" height="24pt" viewBox="0 0 24 24">
<path transform="matrix(1,0,0,-1,5,22.204712)" d="M14 4.404703H13.4 14ZM14 12.55072H14.6 14ZM13.148327 14.724852 12.708071 14.317207 13.148327 14.724852ZM9.950195 18.178833 9.509939 17.771189 9.950195 18.178833ZM3.200195 1.204712V1.804712 1.204712ZM10.800197 1.204712V.604712 1.204712ZM.217987 2.296741 .752591 2.569136 .217987 2.296741ZM1.091797 1.422729 1.364191 1.957333 1.091797 1.422729ZM1.091797 18.986725 1.364191 18.452122 1.091797 18.986725ZM.217987 18.11267-.316617 18.385066 .217987 18.11267ZM9.216797 18.881287 8.889647 18.378323 9.216797 18.881287ZM8.615149 19.143939 8.761935 19.725707 8.615149 19.143939ZM13.950195 13.465393 13.365197 13.332064 13.950195 13.465393ZM13.733184 14.019727 14.253018 14.319347H14.253017L13.733184 14.019727ZM13.782227 2.296743 14.316831 2.024349 13.782227 2.296743ZM12.907786 1.422729 13.180181 .888126 12.907786 1.422729ZM4 5.804712C3.668629 5.804712 3.4 5.536083 3.4 5.204712 3.4 4.873341 3.668629 4.604712 4 4.604712V5.804712ZM10 4.604712C10.331371 4.604712 10.6 4.873341 10.6 5.204712 10.6 5.536083 10.331371 5.804712 10 5.804712V4.604712ZM4 8.804712C3.668629 8.804712 3.4 8.536083 3.4 8.204712 3.4 7.873341 3.668629 7.604712 4 7.604712V8.804712ZM10 7.604712C10.331371 7.604712 10.6 7.873341 10.6 8.204712 10.6 8.536083 10.331371 8.804712 10 8.804712V7.604712ZM13.99961 12.604712C14.330981 12.604712 14.59961 12.873341 14.59961 13.204712 14.59961 13.536083 14.330981 13.804712 13.99961 13.804712V12.604712ZM9.599609 13.204712V13.804712 13.204712ZM8.6 19.204712C8.6 19.536084 8.331371 19.804713 8 19.804713 7.668629 19.804713 7.4 19.536084 7.4 19.204712H8.6ZM8.545898 13.313721 8.818293 13.848325 8.545898 13.313721ZM8.108994 13.750697 8.643598 14.023091V14.023092L8.108994 13.750697ZM14.6 4.404703V12.55072H13.4V4.404703H14.6ZM13.588583 15.132496 10.390451 18.586478 9.509939 17.771189 12.708071 14.317207 13.588583 15.132496ZM7.602065 19.804713H3.200195V18.604712H7.602065V19.804713ZM-.6 16.0047V4.404702H.6V16.0047H-.6ZM3.200195 .604712H10.800197V1.804712H3.200195V.604712ZM-.6 4.404702C-.6 3.85455-.600467 3.405856-.570759 3.042255-.540479 2.67165-.47589 2.336937-.316617 2.024347L.752591 2.569136C.693877 2.684368 .649472 2.843584 .625256 3.139977 .600467 3.443375 .6 3.834748 .6 4.404702H-.6ZM3.200195 1.804712C2.630257 1.804712 2.238761 1.805185 1.935248 1.829983 1.6387 1.854212 1.479397 1.898634 1.364191 1.957333L.819403 .888126C1.132021 .728838 1.466864 .664251 1.837533 .633968 2.201237 .604254 2.650029 .604712 3.200195 .604712V1.804712ZM-.316617 2.024347C-.067412 1.535254 .330053 1.137463 .819403 .888126L1.364191 1.957333C1.100893 2.09149 .886879 2.30558 .752591 2.569136L-.316617 2.024347ZM3.200195 19.804713C2.650038 19.804713 2.201245 19.805178 1.837547 19.775473 1.466882 19.745198 1.13203 19.68062 .819402 19.521328L1.364191 18.452122C1.479387 18.510817 1.638682 18.555233 1.935235 18.579455 2.238753 18.604247 2.630248 18.604712 3.200195 18.604712V19.804713ZM.6 16.0047C.6 16.574654 .600467 16.96603 .625256 17.269433 .649472 17.565827 .693877 17.725045 .752591 17.840277L-.316617 18.385066C-.47589 18.072474-.540479 17.737759-.570759 17.36715-.600467 17.003548-.6 16.554852-.6 16.0047H.6ZM.819403 19.521328C.330026 19.271979-.067425 18.874133-.316617 18.385066L.752591 17.840277C.886892 18.103859 1.100919 18.317978 1.364191 18.452122L.819403 19.521328ZM10.390451 18.586478C10.060824 18.942475 9.829187 19.198718 9.543947 19.38425L8.889647 18.378323C9.02089 18.292956 9.139578 18.171179 9.509939 17.771189L10.390451 18.586478ZM7.602065 18.604712C8.147355 18.604712 8.316595 18.600464 8.468364 18.56217L8.761935 19.725707C8.431965 19.80896 8.087065 19.804713 7.602065 19.804713V18.604712ZM9.543947 19.38425C9.303686 19.540528 9.039125 19.655768 8.761935 19.725707L8.468364 18.56217C8.61817 18.524373 8.76075 18.462162 8.889647 18.378323L9.543947 19.38425ZM14.6 12.55072C14.6 12.986822 14.603705 13.298122 14.535193 13.598722L13.365197 13.332064C13.396695 13.19386 13.4 13.04164 13.4 12.55072H14.6ZM12.708071 14.317207C13.041433 13.957175 13.142534 13.842968 13.21335 13.720106L14.253017 14.319347C14.099089 14.586411 13.885054 14.812309 13.588583 15.132496L12.708071 14.317207ZM14.535193 13.598722C14.477635 13.851266 14.382771 14.094231 14.253018 14.319347L13.213349 13.720106C13.282905 13.59943 13.334064 13.46866 13.365197 13.332064L14.535193 13.598722ZM13.4 4.404703C13.4 3.834689 13.399587 3.44332 13.374844 3.139883 13.350672 2.843458 13.306302 2.684303 13.247622 2.569138L14.316831 2.024349C14.476138 2.337008 14.540655 2.67178 14.570873 3.042353 14.60052 3.405913 14.6 3.854611 14.6 4.404703H13.4ZM10.800197 .604712C11.350352 .604712 11.798963 .604252 12.162484 .63397 12.533046 .664265 12.867631 .728874 13.180181 .888126L12.635392 1.957333C12.520118 1.898598 12.360962 1.854198 12.064711 1.829981 11.761419 1.805187 11.370147 1.804712 10.800197 1.804712V.604712ZM13.247622 2.569138C13.113538 2.305981 12.89909 2.091694 12.635392 1.957333L13.180181 .888126C13.669131 1.137259 14.067422 1.534857 14.316831 2.024349L13.247622 2.569138ZM4 4.604712H10V5.804712H4V4.604712ZM4 7.604712H10V8.804712H4V7.604712ZM13.99961 13.804712H9.599609V12.604712H13.99961V13.804712ZM8.6 14.804712V19.204712H7.4V14.804712H8.6ZM9.599609 13.804712C9.309684 13.804712 9.128407 13.805183 8.991844 13.816349 8.862337 13.826937 8.826625 13.844079 8.818293 13.848325L8.273504 12.779117C8.479084 12.674369 8.690201 12.637007 8.894058 12.620338 9.090859 12.604248 9.329483 12.604712 9.599609 12.604712V13.804712ZM7.4 14.804712C7.4 14.534586 7.399533 14.295902 7.415617 14.099045 7.432272 13.895187 7.46961 13.683944 7.574389 13.478302L8.643598 14.023092C8.639383 14.031363 8.622225 14.067101 8.611631 14.196759 8.600467 14.333418 8.6 14.514786 8.6 14.804712H7.4ZM8.818293 13.848325C8.743119 13.886627 8.681993 13.947736 8.643598 14.023091L7.574389 13.478303C7.727741 13.177334 7.972354 12.93256 8.273504 12.779117L8.818293 13.848325Z" fill="#0b0b0b"/>
</svg>
