<svg xmlns="http://www.w3.org/2000/svg" xmlns:xlink="http://www.w3.org/1999/xlink" version="1.1" width="24pt" height="24pt" viewBox="0 0 24 24">
<path transform="matrix(1,0,0,-1,4,21.20044)" d="M0 13.80044C-.331371 13.80044-.6 13.531811-.6 13.200439-.6 12.869068-.331371 12.600439 0 12.600439V13.80044ZM16 12.600439C16.331372 12.600439 16.6 12.869068 16.6 13.200439 16.6 13.531811 16.331372 13.80044 16 13.80044V12.600439ZM1.091797 1.418457 1.364191 1.95306 1.091797 1.418457ZM.217987 2.29241-.316617 2.020016 .217987 2.29241ZM15.782227 2.29241 15.247622 2.564804 15.782227 2.29241ZM14.907785 1.418457 14.635391 1.95306 14.907785 1.418457ZM14.907785 16.982453 15.18018 17.517056 14.907785 16.982453ZM15.782227 16.108399 15.247622 15.836004 15.782227 16.108399ZM1.091797 16.982453 1.364191 16.44785 1.091797 16.982453ZM.217987 16.108399 .752591 15.836004 .217987 16.108399ZM11.424264 8.776175C11.658579 9.01049 11.658579 9.390388 11.424264 9.624703 11.189949 9.859018 10.810051 9.859018 10.575736 9.624703L11.424264 8.776175ZM7 5.200439 6.575736 4.776175C6.81005 4.541861 7.18995 4.541861 7.424264 4.776175L7 5.200439ZM5.424264 7.624703C5.18995 7.859018 4.81005 7.859018 4.575736 7.624703 4.341421 7.390388 4.341421 7.01049 4.575736 6.776175L5.424264 7.624703ZM12.6 19.20044C12.6 19.53181 12.331371 19.80044 12 19.80044 11.668629 19.80044 11.4 19.53181 11.4 19.20044H12.6ZM11.4 17.20044C11.4 16.869069 11.668629 16.60044 12 16.60044 12.331371 16.60044 12.6 16.869069 12.6 17.20044H11.4ZM4.6 19.20044C4.6 19.53181 4.331371 19.80044 4 19.80044 3.668629 19.80044 3.4 19.53181 3.4 19.20044H4.6ZM3.4 17.20044C3.4 16.869069 3.668629 16.60044 4 16.60044 4.331371 16.60044 4.6 16.869069 4.6 17.20044H3.4ZM0 12.600439H16V13.80044H0V12.600439ZM3.200195 16.60044H12.800196V17.80044H3.200195V16.60044ZM15.4 14.000488V4.400488H16.6V14.000488H15.4ZM12.800196 1.80044H3.200195V.600439H12.800196V1.80044ZM.6 4.400488V14.000488H-.6V4.400488H.6ZM3.200195 1.80044C2.630257 1.80044 2.238761 1.800913 1.935248 1.82571 1.6387 1.849939 1.479397 1.894361 1.364191 1.95306L.819403 .883854C1.132021 .724566 1.466864 .659979 1.837533 .629696 2.201237 .599981 2.650029 .600439 3.200195 .600439V1.80044ZM-.6 4.400488C-.6 3.850334-.600467 3.401614-.570759 3.037989-.54048 2.667366-.475895 2.332617-.316617 2.020016L.752591 2.564804C.693882 2.680027 .649474 2.839264 .625256 3.135698 .600467 3.43913 .6 3.830536 .6 4.400488H-.6ZM1.364191 1.95306C1.100855 2.087238 .88686 2.301287 .752591 2.564804L-.316617 2.020016C-.067392 1.530886 .33009 1.133169 .819403 .883854L1.364191 1.95306ZM15.4 4.400488C15.4 3.830476 15.399587 3.439074 15.374843 3.135605 15.35067 2.839136 15.306297 2.67996 15.247622 2.564804L16.31683 2.020016C16.476143 2.332684 16.540657 2.667494 16.570874 3.038082 16.60052 3.40167 16.6 3.850395 16.6 4.400488H15.4ZM12.800196 .600439C13.350351 .600439 13.798962 .599979 14.162483 .629698 14.533045 .659992 14.86763 .724602 15.18018 .883854L14.635391 1.95306C14.520117 1.894325 14.36096 1.849926 14.064709 1.825708 13.761417 1.800915 13.370146 1.80044 12.800196 1.80044V.600439ZM15.247622 2.564804C15.113558 2.301687 14.899128 2.087442 14.635391 1.95306L15.18018 .883854C15.669091 1.132965 16.067402 1.530485 16.31683 2.020016L15.247622 2.564804ZM12.800196 16.60044C13.370154 16.60044 13.761426 16.599972 14.064723 16.575184 14.360978 16.550972 14.520127 16.506579 14.635391 16.44785L15.18018 17.517056C14.86762 17.676314 14.533027 17.740914 14.16247 17.771197 13.798954 17.800908 13.350342 17.80044 12.800196 17.80044V16.60044ZM16.6 14.000488C16.6 14.550579 16.60052 14.999267 16.570874 15.362816 16.540656 15.733382 16.476136 16.068139 16.31683 16.380793L15.247622 15.836004C15.306304 15.720835 15.350673 15.561688 15.374844 15.265283 15.399587 14.961859 15.4 14.570503 15.4 14.000488H16.6ZM14.635391 16.44785C14.899064 16.3135 15.113525 16.099186 15.247622 15.836004L16.31683 16.380793C16.067435 16.87026 15.669155 17.26791 15.18018 17.517056L14.635391 16.44785ZM3.200195 17.80044C2.650038 17.80044 2.201245 17.800906 1.837546 17.7712 1.466882 17.740925 1.13203 17.676348 .819403 17.517056L1.364191 16.44785C1.479387 16.506545 1.638682 16.55096 1.935235 16.575182 2.238753 16.599974 2.630248 16.60044 3.200195 16.60044V17.80044ZM.6 14.000488C.6 14.570442 .600467 14.961802 .625256 15.265187 .649472 15.561561 .693875 15.720767 .752591 15.836004L-.316617 16.380793C-.475888 16.068207-.540478 15.73351-.570759 15.36291-.600467 14.999323-.6 14.550639-.6 14.000488H.6ZM.819403 17.517056C.330026 17.267706-.067425 16.86986-.316617 16.380793L.752591 15.836004C.886893 16.099587 1.100919 16.313706 1.364191 16.44785L.819403 17.517056ZM10.575736 9.624703 6.575736 5.624703 7.424264 4.776175 11.424264 8.776175 10.575736 9.624703ZM7.424264 5.624703 5.424264 7.624703 4.575736 6.776175 6.575736 4.776175 7.424264 5.624703ZM11.4 19.20044V17.20044H12.6V19.20044H11.4ZM3.4 19.20044V17.20044H4.6V19.20044H3.4Z" fill="#0b0b0b"/>
</svg>
