<svg xmlns="http://www.w3.org/2000/svg" xmlns:xlink="http://www.w3.org/1999/xlink" version="1.1" width="24pt" height="24pt" viewBox="0 0 24 24">
<path transform="matrix(1,0,0,-1,3,22)" d="M6.223607 8.947213C5.976617 9.070708 5.676281 8.970596 5.552786 8.723607 5.429292 8.476618 5.529404 8.176281 5.776393 8.052787L6.223607 8.947213ZM11.776393 5.052787C12.023382 4.929292 12.323719 5.029404 12.447213 5.276393 12.570708 5.523382 12.470596 5.823719 12.223607 5.947213L11.776393 5.052787ZM12.223607 14.052786C12.470596 14.176281 12.570708 14.476618 12.447213 14.723606 12.323719 14.970596 12.023382 15.070708 11.776393 14.947214L12.223607 14.052786ZM5.776393 11.947214C5.529404 11.823719 5.429292 11.523382 5.552786 11.276394 5.676281 11.029404 5.976617 10.929292 6.223607 11.052786L5.776393 11.947214ZM15 1.5C13.619288 1.5 12.5 2.619287 12.5 4H11.5C11.5 2.067003 13.067003 .5 15 .5V1.5ZM12.5 4C12.5 5.380712 13.619288 6.5 15 6.5V7.5C13.067003 7.5 11.5 5.932997 11.5 4H12.5ZM15 6.5C16.380713 6.5 17.5 5.380712 17.5 4H18.5C18.5 5.932997 16.932997 7.5 15 7.5V6.5ZM17.5 4C17.5 2.619287 16.380713 1.5 15 1.5V.5C16.932997 .5 18.5 2.067003 18.5 4H17.5ZM5.776393 8.052787 11.776393 5.052787 12.223607 5.947213 6.223607 8.947213 5.776393 8.052787ZM3 7.5C1.619288 7.5 .5 8.619288 .5 10H-.5C-.5 8.067003 1.067003 6.5 3 6.5V7.5ZM.5 10C.5 11.380713 1.619288 12.5 3 12.5V13.5C1.067003 13.5-.5 11.932997-.5 10H.5ZM3 12.5C4.380712 12.5 5.5 11.380713 5.5 10H6.5C6.5 11.932997 4.932997 13.5 3 13.5V12.5ZM5.5 10C5.5 8.619288 4.380712 7.5 3 7.5V6.5C4.932997 6.5 6.5 8.067003 6.5 10H5.5ZM11.776393 14.947214 5.776393 11.947214 6.223607 11.052786 12.223607 14.052786 11.776393 14.947214ZM15 13.5C13.619288 13.5 12.5 14.619287 12.5 16H11.5C11.5 14.067003 13.067003 12.5 15 12.5V13.5ZM12.5 16C12.5 17.380713 13.619288 18.5 15 18.5V19.5C13.067003 19.5 11.5 17.932997 11.5 16H12.5ZM15 18.5C16.380713 18.5 17.5 17.380713 17.5 16H18.5C18.5 17.932997 16.932997 19.5 15 19.5V18.5ZM17.5 16C17.5 14.619287 16.380713 13.5 15 13.5V12.5C16.932997 12.5 18.5 14.067003 18.5 16H17.5Z" fill="#0b0b0b"/>
</svg>
