<svg xmlns="http://www.w3.org/2000/svg" xmlns:xlink="http://www.w3.org/1999/xlink" version="1.1" width="24pt" height="24pt" viewBox="0 0 24 24">
<path transform="matrix(1,0,0,-1,3,22.28897)" d="M9 14.094534 8.540007 13.898561C8.618554 13.714191 8.799597 13.594534 9 13.594534 9.200403 13.594534 9.381446 13.714191 9.459993 13.898561L9 14.094534ZM9 1.288966 8.75718 .851887C8.908191 .767992 9.091809 .767992 9.24282 .851887L9 1.288966ZM.5 12.288941C.5 13.688925 .906619 14.72616 1.507625 15.440617 2.110067 16.15678 2.93318 16.579295 3.821313 16.707276 5.602302 16.963915 7.630974 16.032258 8.540007 13.898561L9.459993 14.290508C8.369026 16.851248 5.897698 18.01681 3.678687 17.697052 2.56682 17.53683 1.514933 17.002743 .742375 16.084349-.031619 15.164249-.5 13.888973-.5 12.288941H.5ZM9.459993 13.898561C10.369026 16.032258 12.397698 16.963915 14.178687 16.707276 15.06682 16.579295 15.889934 16.15678 16.492375 15.440617 17.09338 14.72616 17.5 13.688925 17.5 12.288941H18.5C18.5 13.888973 18.03162 15.164249 17.257626 16.084349 16.485068 17.002743 15.43318 17.53683 14.321313 17.697052 12.102302 18.01681 9.630974 16.851248 8.540007 14.290508L9.459993 13.898561ZM17.5 12.288941C17.5 9.522326 15.405823 6.901975 13.167819 4.912648 12.064849 3.932235 10.959554 3.133748 10.128901 2.579985 9.714064 2.303429 9.368944 2.088717 9.128474 1.943673 9.008268 1.871168 8.914297 1.816124 8.850937 1.779516 8.81926 1.761214 8.795242 1.747525 8.779431 1.738571 8.771526 1.734095 8.765674 1.730803 8.761943 1.728709 8.760077 1.727663 8.758741 1.726917 8.757945 1.726472 8.757546 1.72625 8.757283 1.726103 8.757155 1.726032 8.757092 1.725996 8.757098 1.726 8.757066 1.725982 8.757106 1.726005 8.75718 1.726046 9 1.288966 9.24282 .851887 9.242963 .851967 9.24314 .852064 9.243245 .852123 9.243457 .852242 9.243667 .852358 9.244086 .852591 9.244642 .852901 9.245334 .853287 9.246717 .854059 9.248644 .855137 9.251103 .856516 9.256024 .859276 9.263081 .863247 9.272204 .868414 9.290451 .878746 9.316971 .893866 9.351212 .913649 9.419687 .953213 9.519075 1.011448 9.644963 1.087379 9.896681 1.239208 10.254686 1.461992 10.683599 1.747931 11.540446 2.319159 12.685151 3.14566 13.832181 4.165237 16.094178 6.175891 18.5 9.055527 18.5 12.288941H17.5ZM9 1.288966C9.24282 1.726046 9.242894 1.726005 9.242934 1.725982 9.242902 1.726 9.242908 1.725996 9.242845 1.726032 9.242717 1.726103 9.242454 1.72625 9.242055 1.726472 9.241259 1.726917 9.239923 1.727663 9.238057 1.728709 9.234326 1.730803 9.228474 1.734095 9.220569 1.738571 9.204758 1.747525 9.18074 1.761214 9.149063 1.779516 9.085703 1.816124 8.991732 1.871168 8.871526 1.943673 8.631056 2.088717 8.285936 2.303429 7.871099 2.579985 7.040446 3.133748 5.935152 3.932235 4.832181 4.912648 2.594177 6.901975 .5 9.522326 .5 12.288941H-.5C-.5 9.055527 1.905823 6.175891 4.167819 4.165237 5.314848 3.14566 6.459554 2.319159 7.316401 1.747931 7.745314 1.461992 8.103319 1.239208 8.355037 1.087379 8.480925 1.011448 8.580313 .953213 8.648788 .913649 8.683029 .893866 8.709549 .878746 8.727796 .868414 8.736919 .863247 8.743976 .859276 8.748897 .856516 8.751356 .855137 8.753283 .854059 8.754666 .853287 8.755358 .852901 8.755914 .852591 8.756333 .852358 8.756543 .852242 8.756755 .852123 8.75686 .852064 8.757037 .851967 8.75718 .851887 9 1.288966Z" fill="#444444"/>
</svg>
