<svg xmlns="http://www.w3.org/2000/svg" xmlns:xlink="http://www.w3.org/1999/xlink" version="1.1" width="24pt" height="24pt" viewBox="0 0 24 24">
<path transform="matrix(1,0,0,-1,4,21.2359)" d="M1.092773 12.192013 .697671 12.643559 1.092773 12.192013ZM5.892776 16.392014 5.497673 16.843562 5.892776 16.392014ZM10.107422 16.392014 9.712319 15.940469 10.107422 16.392014ZM14.907423 12.192013 14.512321 11.740467 14.907423 12.192013ZM7.432618 17.49614 7.602769 16.920773 7.432618 17.49614ZM8.567383 17.49614 8.397231 16.920773 8.567383 17.49614ZM.064971 10.833909 .64548 10.68222 .064971 10.833909ZM.345215 11.451635-.151211 11.788625 .345215 11.451635ZM.152241 2.47052-.402087 2.24091 .152241 2.47052ZM5.847656 2.47052 5.293328 2.70013 5.847656 2.47052ZM4.765367 1.388107 4.994977 .83378 4.765367 1.388107ZM10.152241 2.47052 9.597913 2.240911V2.24091L10.152241 2.47052ZM15.847656 2.47052 15.293328 2.70013 15.847656 2.47052ZM14.765367 1.388107 14.994977 .83378 14.765367 1.388107ZM15.935059 10.833909 15.35455 10.68222 15.935059 10.833909ZM15.654763 11.451637 16.15119 11.788626 15.654763 11.451637ZM15.4 9.783738V4.235796H16.6V9.783738H15.4ZM10.6 4.235887V5.235887H9.4V4.235887H10.6ZM5.4 5.235887V4.235887H6.6V5.235887H5.4ZM.6 4.235797V9.783738H-.6V4.235797H.6ZM1.487876 11.740467 6.287879 15.940469 5.497673 16.843562 .697671 12.643559 1.487876 11.740467ZM9.712319 15.940469 14.512321 11.740467 15.302526 12.643559 10.502524 16.843562 9.712319 15.940469ZM6.287878 15.940468C6.668131 16.27319 6.928096 16.500145 7.144488 16.661988 7.354859 16.819329 7.48803 16.88684 7.602769 16.920773L7.262466 18.071509C6.957081 17.981198 6.693635 17.82329 6.42577 17.622948 6.163924 17.427109 5.86403 17.164124 5.497673 16.843562L6.287878 15.940468ZM10.502524 16.843562C10.136134 17.164153 9.836197 17.427134 9.574282 17.622984 9.306361 17.823325 9.042884 17.981209 8.737535 18.071509L8.397231 16.920773C8.512007 16.88683 8.645244 16.819294 8.855659 16.661953 9.072079 16.500123 9.332099 16.27316 9.712319 15.940469L10.502524 16.843562ZM7.602769 16.920773C7.861903 16.997406 8.138097 16.997406 8.397231 16.920773L8.737535 18.071509C8.256287 18.213828 7.743714 18.213828 7.262466 18.071509L7.602769 16.920773ZM.6 9.783738C.6 10.349494 .604555 10.5256 .64548 10.68222L-.515537 10.985599C-.604555 10.644934-.6 10.286665-.6 9.783738H.6ZM.697671 12.643559C.319253 12.312444 .046561 12.079967-.151211 11.788625L.841641 11.114647C.932545 11.248561 1.062028 11.367849 1.487876 11.740467L.697671 12.643559ZM.64548 10.68222C.685809 10.836556 .752159 10.98283 .841641 11.114647L-.151211 11.788625C-.317551 11.543585-.440712 11.27195-.515537 10.985599L.64548 10.68222ZM3.00023 1.835865C2.52608 1.835865 2.200516 1.83619 1.946763 1.853504 1.698398 1.87045 1.562951 1.901645 1.464473 1.942435L1.005253 .83378C1.274318 .72233 1.555612 .677402 1.865075 .656288 2.169149 .63554 2.542497 .635864 3.00023 .635864V1.835865ZM-.6 4.235797C-.6 3.778066-.600325 3.404737-.579578 3.100684-.558463 2.791234-.513534 2.509968-.402087 2.24091L.706569 2.70013C.665775 2.798615 .634583 2.934045 .617638 3.182377 .600325 3.436106 .6 3.761644 .6 4.235797H-.6ZM1.464473 1.942435C1.12132 2.084574 .848613 2.357204 .706569 2.70013L-.402087 2.24091C-.138155 1.603723 .368294 1.097616 1.005253 .83378L1.464473 1.942435ZM5.4 4.235887C5.4 3.761772 5.399649 3.436205 5.382314 3.182474 5.365346 2.934128 5.334136 2.798647 5.293328 2.70013L6.401984 2.24091C6.513418 2.509935 6.558379 2.791197 6.579523 3.100678 6.600299 3.404775 6.6 3.77812 6.6 4.235887H5.4ZM3.00023 .635864C3.45796 .635864 3.831257 .63554 4.135279 .656288 4.444711 .677404 4.725932 .722338 4.994977 .83378L4.535757 1.942435C4.43726 1.901636 4.301854 1.870447 4.053575 1.853503 3.799885 1.83619 3.474384 1.835865 3.00023 1.835865V.635864ZM5.293328 2.70013C5.151209 2.357023 4.878729 2.084498 4.535757 1.942435L4.994977 .83378C5.632117 1.097692 6.138127 1.603904 6.401984 2.24091L5.293328 2.70013ZM8 7.835887C6.56406 7.835887 5.4 6.671827 5.4 5.235887H6.6C6.6 6.009085 7.226801 6.635886 8 6.635886V7.835887ZM10.6 5.235887C10.6 6.671827 9.435941 7.835887 8 7.835887V6.635886C8.773198 6.635886 9.4 6.009085 9.4 5.235887H10.6ZM13.00023 1.835865C12.526079 1.835865 12.200516 1.83619 11.946762 1.853504 11.698399 1.87045 11.562951 1.901645 11.464474 1.942435L11.005253 .83378C11.274318 .72233 11.555612 .677402 11.865075 .656288 12.169149 .63554 12.542497 .635864 13.00023 .635864V1.835865ZM9.4 4.235887C9.4 3.778154 9.399675 3.404806 9.420422 3.100733 9.441536 2.79127 9.486463 2.509975 9.597913 2.240911L10.706569 2.70013C10.665778 2.798607 10.634584 2.934053 10.617639 3.182418 10.600325 3.436172 10.6 3.761736 10.6 4.235887H9.4ZM11.464474 1.942435C11.12132 2.084574 10.848613 2.357204 10.706569 2.70013L9.597913 2.24091C9.861844 1.603723 10.368295 1.097616 11.005253 .83378L11.464474 1.942435ZM15.4 4.235796C15.4 3.76168 15.399649 3.436138 15.382314 3.182431 15.365348 2.934119 15.334139 2.798655 15.293328 2.70013L16.401984 2.24091C16.513415 2.509927 16.558379 2.791161 16.579524 3.10063 16.6003 3.404706 16.6 3.778031 16.6 4.235796H15.4ZM13.00023 .635864C13.457959 .635864 13.831256 .63554 14.135278 .656288 14.444711 .677404 14.725932 .722338 14.994977 .83378L14.535756 1.942435C14.437259 1.901636 14.301854 1.870447 14.053574 1.853503 13.799884 1.83619 13.474383 1.835865 13.00023 1.835865V.635864ZM15.293328 2.70013C15.151209 2.357024 14.878729 2.084498 14.535756 1.942435L14.994977 .83378C15.632116 1.097692 16.138129 1.603904 16.401984 2.24091L15.293328 2.70013ZM16.6 9.783738C16.6 10.2866 16.604588 10.644921 16.515568 10.985599L15.35455 10.68222C15.395472 10.525616 15.4 10.349546 15.4 9.783738H16.6ZM14.512321 11.740467C14.937942 11.368049 15.067393 11.248621 15.158338 11.114649L16.15119 11.788626C15.953458 12.079908 15.681163 12.312252 15.302526 12.643559L14.512321 11.740467ZM16.515568 10.985599C16.440722 11.27203 16.317482 11.543655 16.15119 11.788626L15.158338 11.114649C15.247866 10.982761 15.314242 10.836475 15.35455 10.68222L16.515568 10.985599Z" fill="#000000"/>
</svg>