<svg xmlns="http://www.w3.org/2000/svg" xmlns:xlink="http://www.w3.org/1999/xlink" version="1.1" width="24pt" height="24pt" viewBox="0 0 24 24">
<path transform="matrix(1,0,0,-1,4,21.000763)" d="M.217987 15.908722 .66349 15.681726 .217987 15.908722ZM1.091797 16.782776 1.318792 16.337273 1.091797 16.782776ZM1.091797 1.218781 1.318792 1.664284 1.091797 1.218781ZM.217987 2.092794-.227516 1.865799 .217987 2.092794ZM15.782227 2.092794 15.336723 2.31979 15.782227 2.092794ZM14.907785 1.218781 14.68079 1.664284 14.907785 1.218781ZM15.782227 15.908722 15.336723 15.681726 15.782227 15.908722ZM14.907785 16.782776 15.134781 17.22828 14.907785 16.782776ZM8 10.500763C7.723857 10.500763 7.5 10.276905 7.5 10.000763 7.5 9.724621 7.723857 9.500763 8 9.500763V10.500763ZM12 9.500763C12.276142 9.500763 12.5 9.724621 12.5 10.000763 12.5 10.276905 12.276142 10.500763 12 10.500763V9.500763ZM8 13.500763C7.723857 13.500763 7.5 13.276905 7.5 13.000763 7.5 12.724621 7.723857 12.500763 8 12.500763V13.500763ZM12 12.500763C12.276142 12.500763 12.5 12.724621 12.5 13.000763 12.5 13.276905 12.276142 13.500763 12 13.500763V12.500763ZM3.5 1.000763C3.5 .724621 3.723858 .500763 4 .500763 4.276143 .500763 4.5 .724621 4.5 1.000763H3.5ZM4.5 17.000763C4.5 17.276906 4.276143 17.500763 4 17.500763 3.723858 17.500763 3.5 17.276906 3.5 17.000763H4.5ZM15.5 13.800751V4.20075H16.5V13.800751H15.5ZM12.800196 1.500763H3.200195V.500763H12.800196V1.500763ZM.5 4.20075V13.800751H-.5V4.20075H.5ZM3.200195 16.500763H12.800196V17.500763H3.200195V16.500763ZM.5 13.800751C.5 14.369054 .500389 14.765207 .525588 15.073626 .55031 15.376205 .596397 15.550048 .66349 15.681726L-.227516 16.135718C-.37841 15.839572-.441316 15.519482-.471091 15.155058-.500389 14.796473-.5 14.352552-.5 13.800751H.5ZM3.200195 17.500763C2.648388 17.500763 2.204371 17.501152 1.845687 17.471856 1.481199 17.442086 1.160977 17.379189 .864802 17.22828L1.318792 16.337273C1.450441 16.40435 1.624365 16.450448 1.927094 16.475174 2.235627 16.500374 2.631897 16.500763 3.200195 16.500763V17.500763ZM.66349 15.681726C.807366 15.964099 1.036678 16.19353 1.318792 16.337273L.864802 17.22828C.394267 16.98853 .012101 16.605994-.227516 16.135718L.66349 15.681726ZM3.200195 1.500763C2.631904 1.500763 2.235634 1.501159 1.927105 1.526366 1.62438 1.551099 1.450449 1.597201 1.318792 1.664284L.864802 .773277C1.160969 .622372 1.481184 .559465 1.845676 .529688 2.204364 .500381 2.648381 .500763 3.200195 .500763V1.500763ZM-.5 4.20075C-.5 3.648949-.500389 3.205032-.471091 2.84645-.441316 2.482029-.378409 2.161943-.227516 1.865799L.66349 2.31979C.596396 2.451469 .55031 2.625309 .525588 2.927883 .500389 3.236298 .5 3.632447 .5 4.20075H-.5ZM1.318792 1.664284C1.036657 1.808039 .807355 2.037438 .66349 2.31979L-.227516 1.865799C.012112 1.395502 .394288 1.013016 .864802 .773277L1.318792 1.664284ZM15.5 4.20075C15.5 3.632397 15.499664 3.236251 15.474512 2.927804 15.449837 2.625202 15.403789 2.451413 15.336723 2.31979L16.22773 1.865799C16.37865 2.162 16.44149 2.482136 16.471205 2.846529 16.500443 3.205078 16.5 3.648999 16.5 4.20075H15.5ZM12.800196 .500763C13.352 .500763 13.795833 .500381 14.154335 .52969 14.518704 .559477 14.838671 .622402 15.134781 .773277L14.68079 1.664284C14.549077 1.597173 14.3753 1.551089 14.072857 1.526364 13.764546 1.50116 13.368496 1.500763 12.800196 1.500763V.500763ZM15.336723 2.31979C15.193028 2.037772 14.96326 1.808209 14.68079 1.664284L15.134781 .773277C15.604959 1.012845 15.987931 1.395168 16.22773 1.865799L15.336723 2.31979ZM16.5 13.800751C16.5 14.352503 16.500443 14.796427 16.471205 15.154979 16.44149 15.519375 16.378653 15.839516 16.22773 16.135718L15.336723 15.681726C15.403789 15.550104 15.449837 15.376312 15.474512 15.073705 15.499664 14.765254 15.5 14.369104 15.5 13.800751H16.5ZM12.800196 16.500763C13.368503 16.500763 13.764553 16.500374 14.072868 16.475176 14.375316 16.450459 14.549085 16.40438 14.68079 16.337273L15.134781 17.22828C14.838662 17.379158 14.518689 17.442074 14.154324 17.471854 13.795826 17.501152 13.351994 17.500763 12.800196 17.500763V16.500763ZM16.22773 16.135718C15.987942 16.606328 15.60498 16.9887 15.134781 17.22828L14.68079 16.337273C14.963238 16.193358 15.193018 15.963765 15.336723 15.681726L16.22773 16.135718ZM8 9.500763H12V10.500763H8V9.500763ZM8 12.500763H12V13.500763H8V12.500763ZM4.5 1.000763V17.000763H3.5V1.000763H4.5Z" fill="#0b0b0b"/>
</svg>
