<svg xmlns="http://www.w3.org/2000/svg" xmlns:xlink="http://www.w3.org/1999/xlink" version="1.1" width="24pt" height="24pt" viewBox="0 0 24 24">
<path transform="matrix(1,0,0,-1,2.003906,22.669495)" d="M17.979853 13.950132 17.688166 13.425805H17.688168L17.979853 13.950132ZM18.34607 13.746405 18.637757 14.270731H18.637755L18.34607 13.746405ZM19.990595 10.957212 20.590594 10.958574V10.958575L19.990595 10.957212ZM19.99187 10.395087 19.391873 10.393725V10.393724L19.99187 10.395087ZM18.342883 7.588926 18.63371 7.064123 18.342883 7.588926ZM17.981318 7.388559 17.690489 7.913363 17.981318 7.388559ZM16.830439 5.39691 17.430354 5.407003 16.830439 5.39691ZM16.837584 4.972246 16.237669 4.962152 16.837584 4.972246ZM15.244368 2.150816 15.545548 1.631884 15.545549 1.631886 15.244368 2.150816ZM14.756707 1.867785 14.455526 2.386717 14.455525 2.386715 14.756707 1.867785ZM11.503409 1.891878 11.194578 1.377462H11.19458L11.503409 1.891878ZM11.147332 2.10565 11.456163 2.620066H11.456161L11.147332 2.10565ZM8.845395 2.106993 8.537162 2.621767 8.845395 2.106993ZM8.49157 1.895132 8.799804 1.380358 8.49157 1.895132ZM5.249925 1.867905 4.950354 1.348042 5.249925 1.867905ZM4.756219 2.152403 5.05579 2.672266 4.756219 2.152403ZM3.154657 4.979012 3.754571 4.968884 3.154657 4.979012ZM3.161536 5.386534 2.561622 5.396662 3.161536 5.386534ZM2.004208 7.393363 1.712521 6.869036 2.004208 7.393363ZM1.645868 7.59271 1.937555 8.117038H1.937554L1.645868 7.59271ZM.001637 10.38178 .601635 10.383142 .001637 10.38178ZM.00036 10.943907-.599639 10.942544 .00036 10.943907ZM1.649286 13.750132 1.358456 14.274935 1.649286 13.750132ZM2.01085 13.950499 2.301679 13.425695 2.01085 13.950499ZM3.161313 15.942099 2.561398 15.932005 3.161313 15.942099ZM3.154168 16.366759 3.754083 16.376852 3.154168 16.366759ZM4.74743 19.188218 4.446248 19.707148 4.74743 19.188218ZM5.235092 19.47125 5.536274 18.95232 5.235092 19.47125ZM8.488641 19.447203 8.79747 19.96162 8.488641 19.447203ZM8.844719 19.233433 8.53589 18.719016 8.844719 19.233433ZM11.146356 19.232047 10.838123 19.74682 11.146356 19.232047ZM11.50018 19.443907 11.808413 18.929133 11.50018 19.443907ZM14.74157 19.471129 14.441999 18.951266 14.74157 19.471129ZM15.235382 19.18657 15.534953 19.706433 15.235382 19.18657ZM16.837454 16.360167 16.23754 16.37026V16.370259L16.837454 16.360167ZM16.830439 15.943167 17.430354 15.933073V15.933075L16.830439 15.943167ZM16.829154 15.813021 17.429083 15.822191 16.829154 15.813021ZM17.12994 14.786238 17.649489 15.086353 17.12994 14.786238ZM17.06579 14.899351 16.536875 14.61607 17.06579 14.899351ZM16.341979 18.432312 16.789656 18.831793 16.341979 18.432312ZM16.758662 17.696715 17.331395 17.875535 16.758662 17.696715ZM12.69405 20.041686 12.825473 19.456255 12.69405 20.041686ZM13.537469 20.048644 13.415865 19.461096 13.537469 20.048644ZM10.12639 18.91522 10.107141 19.514912 10.12639 18.91522ZM11.034051 19.166247 11.325611 18.64185 11.034051 19.166247ZM8.956779 19.167317 8.664647 18.643237 8.956779 19.167317ZM9.86657 18.91522 9.88586 19.51491 9.86657 18.91522ZM6.442922 20.054869 6.565597 19.467545 6.442922 20.054869ZM7.28991 20.048644 7.158556 19.463198 7.28991 20.048644ZM3.232738 17.699156 3.805638 17.52087 3.232738 17.699156ZM3.647332 18.433243 3.198789 18.83175 3.647332 18.433243ZM2.862176 14.787082 3.381725 14.486966 2.862176 14.787082ZM2.92538 14.898497 2.3966 15.182033 2.92538 14.898497ZM3.162647 15.813988 3.762582 15.805105 3.162647 15.813988ZM2.122227 14.013487 1.814939 14.528826 2.122227 14.013487ZM2.797235 14.676693 2.287442 14.993097 2.797235 14.676693ZM.098784 12.282286 .668732 12.094778 .098784 12.282286ZM.528192 13.012711 .969387 12.606082 .528192 13.012711ZM.532586 8.326841 .09148 7.920116 .532586 8.326841ZM.104791 9.052397-.464651 8.863357 .104791 9.052397ZM2.863931 6.543758 3.38466 6.841822 2.863931 6.543758ZM2.793817 6.663877 2.283628 6.348113 2.793817 6.663877ZM2.125232 7.324727 1.815716 6.810723 2.125232 7.324727ZM3.162661 5.523985 2.562748 5.513757 3.162661 5.523985ZM2.931375 6.423963 3.461915 6.70419 2.931375 6.423963ZM3.650262 2.906797 3.202579 2.507324 3.650262 2.906797ZM3.233228 3.642359 3.805969 3.821156 3.233228 3.642359ZM7.297723 1.297415 7.429146 .711985 7.297723 1.297415ZM6.454378 1.290392 6.332774 .702845 6.454378 1.290392ZM9.865106 2.423836 9.845882 3.023527H9.845858L9.865106 2.423836ZM8.957582 2.172789 9.249142 1.648392 8.957582 2.172789ZM11.035028 2.171812 11.327159 2.69589 11.035028 2.171812ZM10.125698 2.42383 10.144987 3.02352 10.125698 2.42383ZM13.548699 1.284163 13.671374 .696836 13.548699 1.284163ZM12.702222 1.290522 12.833575 1.875967 12.702222 1.290522ZM16.75915 3.639887 17.332049 3.461601 16.75915 3.639887ZM16.344532 2.905821 16.793076 2.507313 16.344532 2.905821ZM17.129483 6.551939 16.609934 6.852055 17.129483 6.551939ZM17.066279 6.440524 16.537499 6.72406 17.066279 6.440524ZM16.829142 5.524961 16.229208 5.533844 16.829142 5.524961ZM17.869502 7.325489 18.176789 6.81015 17.869502 7.325489ZM17.194727 6.662413 17.70452 6.346009 17.194727 6.662413ZM19.892939 9.056732 20.462887 8.869224 19.892939 9.056732ZM19.463816 8.326353 19.022622 8.732982 19.463816 8.326353ZM19.459155 13.012247 19.90026 13.418972 19.459155 13.012247ZM19.88708 12.28668 19.317639 12.09764 19.88708 12.28668ZM17.86706 14.014097 18.175389 14.528814 17.86706 14.014097ZM17.196009 14.674515 16.686337 14.357916 17.196009 14.674515ZM9.995965 7.269493C8.118196 7.269493 6.595965 8.791724 6.595965 10.669493H5.395965C5.395965 8.128983 7.455455 6.069492 9.995965 6.069492V7.269493ZM6.595965 10.669493C6.595965 12.54726 8.118196 14.069492 9.995965 14.069492V15.269493C7.455455 15.269493 5.395965 13.210003 5.395965 10.669493H6.595965ZM9.995965 14.069492C11.873734 14.069492 13.395965 12.54726 13.395965 10.669493H14.595965C14.595965 13.210003 12.536475 15.269493 9.995965 15.269493V14.069492ZM13.395965 10.669493C13.395965 8.791724 11.873734 7.269493 9.995965 7.269493V6.069492C12.536475 6.069492 14.595965 8.128983 14.595965 10.669493H13.395965ZM17.688168 13.425805 18.054385 13.222076 18.637755 14.270731 18.271538 14.47446 17.688168 13.425805ZM19.390597 10.955851 19.391873 10.393725 20.59187 10.396449 20.590594 10.958574 19.390597 10.955851ZM18.052054 8.113729 17.690489 7.913363 18.272147 6.863756 18.63371 7.064123 18.052054 8.113729ZM16.230525 5.386816 16.237669 4.962152 17.437499 4.98234 17.430354 5.407003 16.230525 5.386816ZM14.943187 2.669748 14.455526 2.386717 15.057888 1.348852 15.545548 1.631884 14.943187 2.669748ZM11.812241 2.406294 11.456163 2.620066 10.838501 1.591234 11.194578 1.377462 11.812241 2.406294ZM8.537162 2.621767 8.183337 2.409906 8.799804 1.380358 9.153628 1.592218 8.537162 2.621767ZM5.549496 2.387768 5.05579 2.672266 4.456648 1.63254 4.950354 1.348042 5.549496 2.387768ZM3.754571 4.968884 3.761451 5.376406 2.561622 5.396662 2.554742 4.989141 3.754571 4.968884ZM2.295895 7.91769 1.937555 8.117038 1.35418 7.068383 1.712521 6.869036 2.295895 7.91769ZM.601635 10.383142 .600358 10.94527-.599639 10.942544-.598362 10.380417 .601635 10.383142ZM1.940115 13.225328 2.301679 13.425695 1.720021 14.475302 1.358456 14.274935 1.940115 13.225328ZM3.761228 15.952192 3.754083 16.376852 2.554253 16.356665 2.561398 15.932005 3.761228 15.952192ZM5.048612 18.669285 5.536274 18.95232 4.93391 19.990181 4.446248 19.707148 5.048612 18.669285ZM8.179811 18.932787 8.53589 18.719016 9.153548 19.747849 8.79747 19.96162 8.179811 18.932787ZM11.454588 18.717272 11.808413 18.929133 11.191948 19.958682 10.838123 19.74682 11.454588 18.717272ZM14.441999 18.951266 14.935811 18.666707 15.534953 19.706433 15.041142 19.990992 14.441999 18.951266ZM16.23754 16.370259 16.230525 15.953259 17.430354 15.933075 17.437369 16.350075 16.23754 16.370259ZM16.230525 15.95326C16.229525 15.893873 16.228545 15.848203 16.229224 15.80385L17.429083 15.822191C17.42878 15.841993 17.429162 15.862135 17.430354 15.933073L16.230525 15.95326ZM17.649489 15.086353C17.615014 15.146035 17.604264 15.164787 17.594706 15.182632L16.536875 14.61607C16.55762 14.577338 16.579634 14.539368 16.610392 14.486122L17.649489 15.086353ZM16.229224 15.80385C16.235564 15.389117 16.34096 14.981863 16.536875 14.61607L17.594706 15.182632C17.489275 15.37948 17.432499 15.59874 17.429083 15.822191L16.229224 15.80385ZM14.935811 18.666707C15.566395 18.303334 15.759486 18.18391 15.894301 18.032832L16.789656 18.831793C16.495429 19.161517 16.093365 19.384648 15.534953 19.706433L14.935811 18.666707ZM17.437369 16.350073C17.448218 16.99489 17.463068 17.453803 17.331395 17.875535L16.185929 17.517895C16.246304 17.324519 16.249775 17.097506 16.23754 16.37026L17.437369 16.350073ZM15.894301 18.032832C16.026976 17.88415 16.126387 17.7086 16.185929 17.517895L17.331395 17.875535C17.221037 18.228999 17.036538 18.555127 16.789656 18.831793L15.894301 18.032832ZM11.808413 18.929133C12.431153 19.302012 12.628402 19.412016 12.825473 19.456255L12.562627 20.627116C12.132485 20.530552 11.743299 20.288815 11.191948 19.958682L11.808413 18.929133ZM15.041142 19.990992C14.483871 20.312119 14.090646 20.54687 13.659073 20.63619L13.415865 19.461096C13.613773 19.420136 13.813571 19.313399 14.441999 18.951266L15.041142 19.990992ZM12.825473 19.456255C13.019538 19.49982 13.220807 19.501467 13.415865 19.461096L13.659073 20.63619C13.297237 20.711079 12.923447 20.708117 12.562627 20.627116L12.825473 19.456255ZM9.996453 18.314192C10.057986 18.314192 10.101738 18.314122 10.145638 18.315529L10.107141 19.514912C10.0869 19.514262 10.065393 19.51419 9.996453 19.51419V18.314192ZM10.838123 19.74682C10.781686 19.713028 10.761038 19.700957 10.742491 19.690646L11.325611 18.64185C11.363141 18.662716 11.39913 18.684065 11.454588 18.717272L10.838123 19.74682ZM10.145638 18.315529C10.559416 18.32881 10.963917 18.440752 11.325611 18.64185L10.742491 19.690646C10.547631 19.582304 10.329828 19.522059 10.107141 19.514912L10.145638 18.315529ZM8.53589 18.719016C8.588231 18.687592 8.62607 18.66474 8.664647 18.643237L9.24891 19.691397C9.23131 19.701207 9.213329 19.71196 9.153548 19.747849L8.53589 18.719016ZM9.996453 19.51419C9.927326 19.51419 9.906136 19.514258 9.88586 19.51491L9.847281 18.31553C9.891284 18.314116 9.934822 18.314192 9.996453 18.314192V19.51419ZM8.664647 18.643237C9.027002 18.441254 9.432716 18.328866 9.847281 18.31553L9.88586 19.51491C9.66258 19.522093 9.443978 19.58266 9.24891 19.691397L8.664647 18.643237ZM5.536274 18.95232C6.166619 19.318165 6.366996 19.426062 6.565597 19.467545L6.320248 20.642195C5.887037 20.55171 5.492624 20.314454 4.93391 19.990181L5.536274 18.95232ZM8.79747 19.96162C8.243832 20.293995 7.853145 20.53719 7.421264 20.634089L7.158556 19.463198C7.356465 19.418795 7.554735 19.30805 8.179811 18.932787L8.79747 19.96162ZM6.565597 19.467545C6.761282 19.508418 6.963616 19.506936 7.158556 19.463198L7.421264 20.634089C7.059062 20.715355 6.683493 20.718066 6.320248 20.642195L6.565597 19.467545ZM3.754083 16.376852C3.741896 17.101206 3.745586 17.327902 3.805638 17.52087L2.659838 17.877442C2.528979 17.456942 2.543433 16.99978 2.554253 16.356665L3.754083 16.376852ZM4.446248 19.707148C3.890207 19.384428 3.491337 19.16103 3.198789 18.83175L4.095875 18.034733C4.230056 18.185763 4.421776 18.305478 5.048612 18.669285L4.446248 19.707148ZM3.805638 17.52087C3.864727 17.710745 3.963688 17.88595 4.095875 18.034733L3.198789 18.83175C2.953455 18.555615 2.769646 18.230296 2.659838 17.877442L3.805638 17.52087ZM3.381725 14.486966C3.412055 14.539473 3.433701 14.576807 3.454159 14.614961L2.3966 15.182033C2.38717 15.164444 2.376613 15.146032 2.342628 15.087197L3.381725 14.486966ZM2.561398 15.932005C2.562592 15.861053 2.563 15.842253 2.562713 15.82287L3.762582 15.805105C3.763231 15.848976 3.762199 15.894528 3.761228 15.952192L2.561398 15.932005ZM3.454159 14.614961C3.650555 14.981229 3.756426 15.389326 3.762582 15.805105L2.562713 15.82287C2.559401 15.599161 2.502434 15.379406 2.3966 15.182033L3.454159 14.614961ZM2.301679 13.425695C2.356246 13.455935 2.392713 13.476203 2.429516 13.498148L1.814939 14.528826C1.797377 14.518354 1.778029 14.507448 1.720021 14.475302L2.301679 13.425695ZM2.342628 15.087197C2.308757 15.028561 2.29801 15.010124 2.287442 14.993097L3.307027 14.360289C3.329834 14.397036 3.351232 14.434179 3.381725 14.486966L2.342628 15.087197ZM2.429516 13.498148C2.786843 13.711216 3.087734 14.006961 3.307027 14.360289L2.287442 14.993097C2.169288 14.802725 2.007227 14.643484 1.814939 14.528826L2.429516 13.498148ZM.600358 10.94527C.598701 11.674705 .605316 11.902018 .668732 12.094778L-.471164 12.469793C-.60955 12.049155-.601106 11.588639-.599639 10.942544L.600358 10.94527ZM1.358456 14.274935C.793157 13.961664 .387067 13.744919 .086997 13.419339L.969387 12.606082C1.106944 12.755332 1.302281 12.871861 1.940115 13.225328L1.358456 14.274935ZM.668732 12.094778C.731131 12.284445 .833702 12.458862 .969387 12.606082L.086997 13.419339C-.164465 13.146502-.355039 12.822767-.471164 12.469793L.668732 12.094778ZM1.937554 8.117038C1.304426 8.469252 1.110451 8.585247 .973693 8.733566L.09148 7.920116C.389874 7.596498 .793298 7.380406 1.354181 7.068383L1.937554 8.117038ZM-.598362 10.380417C-.596905 9.738867-.603362 9.281192-.464651 8.863357L.674232 9.241437C.61069 9.432846 .603281 9.658354 .601635 10.383142L-.598362 10.380417ZM.973693 8.733566C.838911 8.879742 .73684 9.052844 .674232 9.241437L-.464651 8.863357C-.348326 8.512954-.158716 8.191463 .09148 7.920116L.973693 8.733566ZM3.38466 6.841822C3.351938 6.898989 3.328744 6.939672 3.304006 6.979642L2.283628 6.348113C2.295034 6.329683 2.30654 6.309745 2.343202 6.245695L3.38466 6.841822ZM1.712521 6.869036C1.777423 6.832931 1.797264 6.821835 1.815716 6.810723L2.434747 7.838731C2.394382 7.863037 2.352962 7.885943 2.295895 7.91769L1.712521 6.869036ZM3.304006 6.979642C3.086712 7.330729 2.789052 7.625381 2.434747 7.838731L1.815716 6.810723C2.006039 6.696116 2.166343 6.537613 2.283628 6.348113L3.304006 6.979642ZM3.761451 5.376406C3.76256 5.442119 3.763362 5.487945 3.762573 5.534213L2.562748 5.513757C2.563116 5.492173 2.562841 5.468881 2.561622 5.396662L3.761451 5.376406ZM2.343202 6.245695C2.380748 6.180101 2.391086 6.162193 2.400835 6.143735L3.461915 6.70419C3.439969 6.745738 3.415645 6.787689 3.38466 6.841822L2.343202 6.245695ZM3.762573 5.534213C3.755613 5.942467 3.652559 6.343255 3.461915 6.70419L2.400835 6.143735C2.503533 5.949302 2.559001 5.733492 2.562748 5.513757L3.762573 5.534213ZM5.05579 2.672266C4.425799 3.035297 4.232875 3.155058 4.097946 3.306271L3.202579 2.507324C3.496701 2.177706 3.897596 1.954695 4.456648 1.63254L5.05579 2.672266ZM2.554742 4.989141C2.543859 4.344515 2.528806 3.885378 2.660487 3.463562L3.805969 3.821156C3.745613 4.014492 3.742289 4.241343 3.754571 4.968884L2.554742 4.989141ZM4.097946 3.306271C3.964933 3.455336 3.865357 3.630917 3.805969 3.821156L2.660487 3.463562C2.770987 3.109596 2.956021 2.783636 3.202579 2.507324L4.097946 3.306271ZM8.183337 2.409906C7.560655 2.037062 7.363387 1.92709 7.166299 1.882845L7.429146 .711985C7.859272 .808544 8.24839 1.050186 8.799804 1.380358L8.183337 2.409906ZM4.950354 1.348042C5.507839 1.026791 5.901257 .792154 6.332774 .702845L6.575981 1.877939C6.378016 1.918913 6.177712 2.025757 5.549496 2.387768L4.950354 1.348042ZM7.166299 1.882845C6.972142 1.839258 6.770947 1.837587 6.575981 1.877939L6.332774 .702845C6.694702 .627937 7.068418 .631004 7.429146 .711985L7.166299 1.882845ZM9.99504 3.024864C9.933496 3.024864 9.889769 3.024935 9.845882 3.023527L9.884329 1.824144C9.904587 1.824793 9.9261 1.824863 9.99504 1.824863V3.024864ZM9.153628 1.592218C9.210792 1.626446 9.230847 1.63822 9.249142 1.648392L8.666021 2.697186C8.628225 2.676172 8.591948 2.654572 8.537162 2.621767L9.153628 1.592218ZM9.845858 3.023527C9.432006 3.010244 9.027653 2.898251 8.666021 2.697186L9.249142 1.648392C9.444066 1.756767 9.661739 1.816999 9.884354 1.824144L9.845858 3.023527ZM11.456161 2.620066C11.402675 2.652178 11.365447 2.674549 11.327159 2.69589L10.742896 1.647734C10.760785 1.63776 10.77987 1.626434 10.838503 1.591234L11.456161 2.620066ZM9.99504 1.824863C10.064181 1.824863 10.086134 1.824793 10.106409 1.824141L10.144987 3.02352C10.100981 3.024935 10.056672 3.024864 9.99504 3.024864V1.824863ZM11.327159 2.69589C10.964858 2.897844 10.559616 3.010183 10.144987 3.02352L10.106409 1.824141C10.329626 1.816959 10.547772 1.756498 10.742896 1.647734L11.327159 2.69589ZM14.455525 2.386715C13.825293 2.020935 13.624651 1.912975 13.426024 1.871489L13.671374 .696836C14.104555 .787315 14.499083 1.024529 15.057889 1.348854L14.455525 2.386715ZM11.19458 1.377462C11.748365 1.044998 12.139028 .801966 12.570868 .705076L12.833575 1.875967C12.635629 1.92038 12.437161 2.031122 11.812239 2.406294L11.19458 1.377462ZM13.426024 1.871489C13.230532 1.830656 13.028709 1.832186 12.833575 1.875967L12.570868 .705076C12.932878 .623854 13.307935 .620926 13.671374 .696836L13.426024 1.871489ZM16.237669 4.962152C16.249859 4.237593 16.246287 4.011093 16.18625 3.818172L17.332049 3.461601C17.462924 3.882147 17.448317 4.339434 17.437499 4.98234L16.237669 4.962152ZM15.545549 1.631886C16.101574 1.954596 16.500525 2.17803 16.793076 2.507313L15.895988 3.304329C15.761811 3.153305 15.570038 3.033566 14.943186 2.669746L15.545549 1.631886ZM16.18625 3.818172C16.127175 3.62834 16.028206 3.453146 15.895988 3.304329L16.793076 2.507313C17.03838 2.783417 17.222229 3.108706 17.332049 3.461601L16.18625 3.818172ZM16.609934 6.852055C16.579623 6.799581 16.557955 6.762207 16.537499 6.72406L17.595059 6.156988C17.604485 6.174568 17.61506 6.193014 17.64903 6.251823L16.609934 6.852055ZM17.430354 5.407003C17.42917 5.477328 17.428788 5.496599 17.429076 5.516079L16.229208 5.533844C16.22856 5.490069 16.229544 5.445106 16.230525 5.386816L17.430354 5.407003ZM16.537499 6.72406C16.341015 6.357627 16.235362 5.949435 16.229208 5.533844L17.429076 5.516079C17.43239 5.739975 17.489314 5.959781 17.595059 6.156988L16.537499 6.72406ZM17.690489 7.913363C17.637902 7.884221 17.599539 7.863084 17.562214 7.840828L18.176789 6.81015C18.193829 6.820311 18.212159 6.830512 18.272147 6.863756L17.690489 7.913363ZM17.64903 6.251823C17.681252 6.307604 17.693387 6.32807 17.70452 6.346009L16.684935 6.978816C16.662699 6.942989 16.642058 6.907667 16.609934 6.852055L17.64903 6.251823ZM17.562214 7.840828C17.204808 7.627712 16.90418 7.332067 16.684935 6.978816L17.70452 6.346009C17.822724 6.536459 17.98458 6.695539 18.176789 6.81015L17.562214 7.840828ZM19.391873 10.393724C19.393528 9.665082 19.386466 9.437175 19.32299 9.244241L20.462887 8.869224C20.601216 9.289685 20.593338 9.749574 20.59187 10.39645L19.391873 10.393724ZM18.63371 7.064123C19.199133 7.377461 19.604964 7.594171 19.90501 7.919724L19.022622 8.732982C18.885043 8.583708 18.68976 8.467126 18.052054 8.113729L18.63371 7.064123ZM19.32299 9.244241C19.260493 9.054269 19.158089 8.879965 19.022622 8.732982L19.90501 7.919724C20.156689 8.192798 20.34686 8.516555 20.462887 8.869224L19.32299 9.244241ZM18.054383 13.222076C18.68734 12.869959 18.881257 12.753877 19.018048 12.605522L19.90026 13.418972C19.601897 13.742557 19.198817 13.95861 18.637757 14.270731L18.054383 13.222076ZM20.590594 10.958575C20.589137 11.600681 20.59519 12.058008 20.45652 12.47572L19.317639 12.09764C19.381222 11.906107 19.388953 11.680084 19.390597 10.95585L20.590594 10.958575ZM19.018048 12.605522C19.152935 12.459233 19.255078 12.286087 19.317639 12.097641L20.45652 12.475719C20.340147 12.826269 20.150353 13.147738 19.90026 13.418972L19.018048 12.605522ZM18.27154 14.47446C18.211966 14.507601 18.192854 14.518353 18.175389 14.528814L17.558732 13.49938C17.596203 13.476934 17.634003 13.455936 17.688166 13.425805L18.27154 14.47446ZM16.610392 14.486122C16.643326 14.429109 16.664 14.393877 16.686337 14.357916L17.70568 14.991114C17.694214 15.009572 17.681706 15.030581 17.649489 15.086353L16.610392 14.486122ZM18.175389 14.528814C17.984322 14.643267 17.823319 14.801738 17.70568 14.991114L16.686337 14.357916C16.904643 14.006481 17.20363 13.712093 17.558732 13.49938L18.175389 14.528814Z" fill="#0b0b0b"/>
</svg>
