<svg xmlns="http://www.w3.org/2000/svg" xmlns:xlink="http://www.w3.org/1999/xlink" version="1.1" width="24pt" height="24pt" viewBox="0 0 24 24">
<path transform="matrix(1,0,0,-1,3,21.199952)" d="M13.4 1.199951C13.4 .86858 13.668629 .599951 14 .599951 14.331371 .599951 14.6 .86858 14.6 1.199951H13.4ZM3.4 1.199951C3.4 .86858 3.668629 .599951 4 .599951 4.331371 .599951 4.6 .86858 4.6 1.199951H3.4ZM17.4 4.200066C17.4 3.868694 17.668629 3.600065 18 3.600065 18.331372 3.600065 18.6 3.868694 18.6 4.200066H17.4ZM15.152149 7.530828C14.83161 7.614858 14.503641 7.423128 14.419612 7.102589 14.335582 6.782049 14.527311 6.454081 14.847851 6.370051L15.152149 7.530828ZM-.6 4.200066C-.6 3.868694-.331371 3.600065 0 3.600065 .331371 3.600065 .6 3.868694 .6 4.200066H-.6ZM3.152149 6.370051C3.472689 6.454081 3.664418 6.782049 3.580388 7.102589 3.496358 7.423128 3.16839 7.614858 2.847851 7.530828L3.152149 6.370051ZM14.599852 11.410926C14.352936 11.18993 14.331923 10.810613 14.552919 10.563696 14.773914 10.31678 15.153233 10.295768 15.400148 10.516764L14.599852 11.410926ZM10.599852 15.883139C10.352936 15.662143 10.331923 15.282825 10.552919 15.03591 10.773915 14.788994 11.153233 14.767981 11.400148 14.988976L10.599852 15.883139ZM2.599852 10.516764C2.846768 10.295768 3.226085 10.31678 3.447081 10.563696 3.668077 10.810613 3.647064 11.18993 3.400148 11.410926L2.599852 10.516764ZM6.599852 14.988976C6.846768 14.767981 7.226085 14.788994 7.447081 15.03591 7.668077 15.282825 7.647064 15.662143 7.400148 15.883139L6.599852 14.988976ZM14.6 1.199951C14.6 2.321934 13.845185 3.235195 12.844232 3.835768 11.831334 4.443505 10.47076 4.799952 9 4.799952V3.599951C10.290664 3.599951 11.43009 3.284824 12.226836 2.806776 13.035526 2.321562 13.4 1.734822 13.4 1.199951H14.6ZM9 4.799952C7.52924 4.799952 6.168666 4.443505 5.155768 3.835768 4.154815 3.235195 3.4 2.321934 3.4 1.199951H4.6C4.6 1.734822 4.964474 2.321562 5.773163 2.806776 6.569911 3.284824 7.709336 3.599951 9 3.599951V4.799952ZM18.6 4.200066C18.6 5.030326 18.18138 5.753389 17.563416 6.309112 16.94708 6.863365 16.104388 7.281198 15.152149 7.530828L14.847851 6.370051C15.661517 6.156748 16.318823 5.814488 16.761013 5.416837 17.201573 5.020653 17.4 4.599998 17.4 4.200066H18.6ZM.6 4.200066C.6 4.599998 .798427 5.020653 1.238986 5.416837 1.681176 5.814488 2.338483 6.156748 3.152149 6.370051L2.847851 7.530828C1.895612 7.281198 1.052919 6.863365 .436585 6.309112-.18138 5.753389-.6 5.030326-.6 4.200066H.6ZM9 7.799952C7.674517 7.799952 6.6 8.874468 6.6 10.199951H5.4C5.4 8.211725 7.011775 6.599951 9 6.599951V7.799952ZM6.6 10.199951C6.6 11.525434 7.674517 12.599951 9 12.599951V13.799952C7.011775 13.799952 5.4 12.188177 5.4 10.199951H6.6ZM9 12.599951C10.325483 12.599951 11.4 11.525434 11.4 10.199951H12.6C12.6 12.188177 10.988225 13.799952 9 13.799952V12.599951ZM11.4 10.199951C11.4 8.874468 10.325483 7.799952 9 7.799952V6.599951C10.988225 6.599951 12.6 8.211725 12.6 10.199951H11.4ZM15.400148 10.516764C16.135689 11.175091 16.6 12.133695 16.6 13.199951H15.4C15.4 12.489208 15.091809 11.85124 14.599852 11.410926L15.400148 10.516764ZM16.6 13.199951C16.6 15.188176 14.988225 16.799952 13 16.799952V15.599951C14.325483 15.599951 15.4 14.525434 15.4 13.199951H16.6ZM13 16.799952C12.078359 16.799952 11.236362 16.45283 10.599852 15.883139L11.400148 14.988976C11.825151 15.369366 12.384933 15.599951 13 15.599951V16.799952ZM3.400148 11.410926C2.90819 11.85124 2.6 12.489208 2.6 13.199951H1.4C1.4 12.133695 1.864311 11.175091 2.599852 10.516764L3.400148 11.410926ZM2.6 13.199951C2.6 14.525434 3.674516 15.599951 5 15.599951V16.799952C3.011775 16.799952 1.4 15.188176 1.4 13.199951H2.6ZM5 15.599951C5.615067 15.599951 6.174848 15.369366 6.599852 14.988976L7.400148 15.883139C6.763639 16.45283 5.921641 16.799952 5 16.799952V15.599951Z" fill="#0b0b0b"/>
</svg>
